<svg aria-hidden="true" style="position: absolute; width: 0; height: 0; overflow: hidden;" version="1.1" xmlns="http://www.w3.org/2000/svg" xmlns:xlink="http://www.w3.org/1999/xlink">
<defs>
<symbol id="icon-microphoneR" viewBox="0 0 32 32">
<title>microphoneR</title>
<path d="M16.4 25.936v2.993c2.992 0.161 5.305 1.151 5.305 2.075 0 0.023-12.268 0.023-12.268 0 0-0.889 2.142-1.849 4.973-2.062v-3.018c-3.614-0.518-6.402-3.597-6.402-7.354v-1.555h0.995v1.555c0 3.57 2.894 6.465 6.464 6.466h0.004c3.57-0.001 6.464-2.896 6.464-6.466v-1.555h1.058v1.555c-0.001 3.801-2.917 6.903-6.593 7.366zM15.5 23.955c-3.035 0-5.494-2.459-5.494-5.494v-2.477h4.495v-0.999h-4.495v-0.999h4.495v-0.998h-4.495v-0.999h4.495v-0.999h-4.495v-0.999h4.495v-0.999h-4.495v-1.582c0-3.034 2.459-5.432 5.494-5.432 3.034 0 5.494 2.397 5.494 5.432v1.582h-4.496v0.999h4.496v0.999h-4.496v0.999h4.496v0.999h-4.496v0.998h4.496v0.999h-4.496v0.999h4.496v2.477c0 3.035-2.46 5.494-5.494 5.494z"></path>
</symbol>
<symbol id="icon-pool" viewBox="0 0 24 24">
<title>pool</title>
<path d="M14.016 5.484c0-1.359 1.125-2.484 2.484-2.484s2.484 1.125 2.484 2.484-1.125 2.531-2.484 2.531-2.484-1.172-2.484-2.531zM8.672 12c-0.563 0-0.797-0.141-1.172-0.375-0.188-0.141-0.422-0.234-0.75-0.375l3.234-3.234-0.984-1.031c-1.125-1.125-2.156-1.5-3.984-1.5v-2.484c2.484 0 3.938 0.469 5.484 2.016l6.422 6.375c-0.141 0.094-0.281 0.188-0.422 0.234-0.375 0.234-0.609 0.375-1.172 0.375s-0.75-0.141-1.125-0.375c-0.469-0.281-1.078-0.609-2.203-0.609s-1.734 0.328-2.203 0.609c-0.375 0.234-0.563 0.375-1.125 0.375zM21.984 16.5c-1.125 0-1.688-0.375-2.156-0.656-0.375-0.234-0.609-0.328-1.172-0.328s-0.75 0.094-1.125 0.328c-0.469 0.281-1.078 0.656-2.203 0.656s-1.688-0.375-2.156-0.656c-0.375-0.234-0.609-0.328-1.172-0.328s-0.75 0.094-1.125 0.328c-0.469 0.281-1.078 0.656-2.203 0.656s-1.688-0.375-2.156-0.656c-0.375-0.234-0.609-0.328-1.172-0.328s-0.75 0.094-1.125 0.328c-0.469 0.281-1.078 0.656-2.203 0.656v-2.016c0.563 0 0.75-0.094 1.125-0.328 0.469-0.281 1.078-0.656 2.203-0.656s1.688 0.375 2.156 0.656c0.375 0.234 0.609 0.328 1.172 0.328s0.75-0.094 1.125-0.328c0.469-0.281 1.078-0.656 2.203-0.656s1.688 0.375 2.156 0.656c0.375 0.234 0.609 0.328 1.172 0.328s0.75-0.094 1.125-0.328c0.469-0.281 1.078-0.656 2.203-0.656s1.688 0.375 2.156 0.656c0.375 0.234 0.609 0.328 1.172 0.328v2.016zM21.984 21c-1.125 0-1.688-0.375-2.156-0.656-0.375-0.234-0.609-0.328-1.172-0.328s-0.75 0.094-1.125 0.328c-0.469 0.281-1.078 0.656-2.203 0.656s-1.688-0.375-2.156-0.656c-0.375-0.234-0.609-0.328-1.172-0.328s-0.75 0.094-1.125 0.328c-0.469 0.281-1.078 0.656-2.203 0.656s-1.734-0.375-2.203-0.656c-0.375-0.234-0.563-0.328-1.125-0.328s-0.797 0.094-1.172 0.328c-0.469 0.281-1.031 0.656-2.156 0.656v-2.016c0.563 0 0.75-0.094 1.125-0.328 0.469-0.281 1.078-0.656 2.203-0.656s1.688 0.375 2.156 0.656c0.375 0.234 0.609 0.328 1.172 0.328s0.75-0.094 1.125-0.328c0.469-0.281 1.078-0.656 2.203-0.656s1.734 0.375 2.203 0.656c0.375 0.234 0.563 0.328 1.125 0.328s0.797-0.094 1.172-0.328c0.469-0.281 1.031-0.656 2.156-0.656s1.734 0.375 2.203 0.656c0.375 0.234 0.563 0.328 1.125 0.328v2.016z"></path>
</symbol>
<symbol id="icon-automobile" viewBox="0 0 32 28">
<title>automobile</title>
<path d="M7.5 17c0-1.375-1.125-2.5-2.5-2.5s-2.5 1.125-2.5 2.5 1.125 2.5 2.5 2.5 2.5-1.125 2.5-2.5zM8.062 12h15.875l-1.391-5.578c-0.047-0.172-0.359-0.422-0.547-0.422h-12c-0.187 0-0.5 0.25-0.547 0.422zM29.5 17c0-1.375-1.125-2.5-2.5-2.5s-2.5 1.125-2.5 2.5 1.125 2.5 2.5 2.5 2.5-1.125 2.5-2.5zM32 15.5v6c0 0.281-0.219 0.5-0.5 0.5h-1.5v2c0 1.656-1.344 3-3 3s-3-1.344-3-3v-2h-16v2c0 1.656-1.344 3-3 3s-3-1.344-3-3v-2h-1.5c-0.281 0-0.5-0.219-0.5-0.5v-6c0-1.937 1.563-3.5 3.5-3.5h0.438l1.641-6.547c0.484-1.969 2.391-3.453 4.422-3.453h12c2.031 0 3.938 1.484 4.422 3.453l1.641 6.547h0.438c1.937 0 3.5 1.563 3.5 3.5z"></path>
</symbol>
<symbol id="icon-bed" viewBox="0 0 32 28">
<title>bed</title>
<path d="M4 16h27c0.547 0 1 0.453 1 1v7h-4v-4h-24v4h-4v-19c0-0.547 0.453-1 1-1h2c0.547 0 1 0.453 1 1v11zM13 11c0-2.203-1.797-4-4-4s-4 1.797-4 4 1.797 4 4 4 4-1.797 4-4zM32 15v-1c0-3.313-2.688-6-6-6h-11c-0.547 0-1 0.453-1 1v6h18z"></path>
</symbol>
<symbol id="icon-mic" viewBox="0 0 20 20">
<title>mic</title>
<path d="M1.228 10.891c-0.221 0.148-0.292 0.46-0.159 0.69l1.296 2.244c0.133 0.23 0.438 0.325 0.677 0.208l3.958-1.917v6.884h2v-7.854l4.071-1.973-2.62-4.54-9.223 6.258zM18.457 3.037c-1.121-1.94-3.604-2.605-5.546-1.484-0.91 0.525-1.508 1.359-1.801 2.289l2.976 5.156c0.951 0.212 1.973 0.11 2.885-0.415 1.942-1.121 2.607-3.603 1.486-5.546z"></path>
</symbol>
<symbol id="icon-spoon-knife" viewBox="0 0 32 32">
<title>spoon-knife</title>
<path d="M7 0c-3.314 0-6 3.134-6 7 0 3.31 1.969 6.083 4.616 6.812l-0.993 16.191c-0.067 1.098 0.778 1.996 1.878 1.996h1c1.1 0 1.945-0.898 1.878-1.996l-0.993-16.191c2.646-0.729 4.616-3.502 4.616-6.812 0-3.866-2.686-7-6-7zM27.167 0l-1.667 10h-1.25l-0.833-10h-0.833l-0.833 10h-1.25l-1.667-10h-0.833v13c0 0.552 0.448 1 1 1h2.604l-0.982 16.004c-0.067 1.098 0.778 1.996 1.878 1.996h1c1.1 0 1.945-0.898 1.878-1.996l-0.982-16.004h2.604c0.552 0 1-0.448 1-1v-13h-0.833z"></path>
</symbol>
<symbol id="icon-whatsapp" viewBox="0 0 32 32">
<title>whatsapp</title>
<path d="M27.281 4.65c-2.994-3-6.975-4.65-11.219-4.65-8.738 0-15.85 7.112-15.85 15.856 0 2.794 0.731 5.525 2.119 7.925l-2.25 8.219 8.406-2.206c2.319 1.262 4.925 1.931 7.575 1.931h0.006c0 0 0 0 0 0 8.738 0 15.856-7.113 15.856-15.856 0-4.238-1.65-8.219-4.644-11.219zM16.069 29.050v0c-2.369 0-4.688-0.637-6.713-1.837l-0.481-0.288-4.987 1.306 1.331-4.863-0.313-0.5c-1.325-2.094-2.019-4.519-2.019-7.012 0-7.269 5.912-13.181 13.188-13.181 3.519 0 6.831 1.375 9.319 3.862 2.488 2.494 3.856 5.8 3.856 9.325-0.006 7.275-5.919 13.188-13.181 13.188zM23.294 19.175c-0.394-0.2-2.344-1.156-2.706-1.288s-0.625-0.2-0.894 0.2c-0.262 0.394-1.025 1.288-1.256 1.556-0.231 0.262-0.462 0.3-0.856 0.1s-1.675-0.619-3.188-1.969c-1.175-1.050-1.975-2.35-2.206-2.744s-0.025-0.613 0.175-0.806c0.181-0.175 0.394-0.463 0.594-0.694s0.262-0.394 0.394-0.662c0.131-0.262 0.069-0.494-0.031-0.694s-0.894-2.15-1.219-2.944c-0.319-0.775-0.65-0.669-0.894-0.681-0.231-0.012-0.494-0.012-0.756-0.012s-0.694 0.1-1.056 0.494c-0.363 0.394-1.387 1.356-1.387 3.306s1.419 3.831 1.619 4.1c0.2 0.262 2.794 4.269 6.769 5.981 0.944 0.406 1.681 0.65 2.256 0.837 0.95 0.3 1.813 0.256 2.494 0.156 0.762-0.113 2.344-0.956 2.675-1.881s0.331-1.719 0.231-1.881c-0.094-0.175-0.356-0.275-0.756-0.475z"></path>
</symbol>
</defs>
</svg>
